<svg id="Layer_1" data-name="Layer 1" xmlns="http://www.w3.org/2000/svg" viewBox="0 0 432.5 360.5"><defs><style>.cls-1{fill:#f5a531;}</style></defs><title>logo</title><polyline class="cls-1" points="216.5 0 216.5 72 216 72.5 144 72.5 144 72 108 108 216 216 288 144 288 144.5 432 144.5 432.5 144 432.5 216 432 216.5 324 216.5 324 216 288 252 324 288 324 288.5 432 288.5 432.5 288 432.5 360 432 360.5 288 360.5 288 360 216 288 144 360 144 360.5 0 360.5 0.5 360 0.5 288 0 288.5 108 288.16 108 288 144 252 0 108 0.5 108 0.5 72 0 72.39 72 0 72 0.5 216 0.5"/></svg>