<?xml version="1.0" encoding="utf-8"?>
<!-- Generator: Adobe Illustrator 21.0.2, SVG Export Plug-In . SVG Version: 6.00 Build 0)  -->
<svg version="1.1" id="Layer_1" xmlns="http://www.w3.org/2000/svg" xmlns:xlink="http://www.w3.org/1999/xlink" x="0px" y="0px"
	 viewBox="0 0 300 300" style="enable-background:new 0 0 300 300;" xml:space="preserve">
<style type="text/css">
	.st0{fill:#3AAAE1;}
</style>
<path class="st0" d="M300,57.3c-11,4.9-22.9,8.2-35.3,9.7c12.7-7.6,22.5-19.6,27.1-33.9c-11.9,7-25.1,12.1-39.1,14.9
	c-11.2-11.9-27.2-19.4-44.9-19.4c-34,0-61.5,27.5-61.5,61.3c0,4.8,0.5,9.5,1.6,14c-51.2-2.6-96.5-27-126.9-64.1
	c-5.3,9.1-8.3,19.6-8.3,30.8c0,21.3,10.9,40.1,27.4,51.1c-10.1-0.3-19.6-3.1-27.9-7.7c0,0.3,0,0.5,0,0.8c0,29.7,21.2,54.5,49.4,60.2
	c-5.2,1.4-10.6,2.2-16.2,2.2c-4,0-7.8-0.4-11.6-1.1c7.8,24.4,30.6,42.1,57.5,42.6c-21.1,16.5-47.6,26.3-76.4,26.3
	c-5,0-9.9-0.3-14.7-0.9c27.2,17.4,59.6,27.6,94.3,27.6c113.2,0,175.1-93.5,175.1-174.5c0-2.7-0.1-5.3-0.2-7.9
	C281.3,80.4,291.7,69.6,300,57.3L300,57.3z"/>
</svg>
